<svg width="109" height="42" viewBox="0 0 109 42" fill="none" xmlns="http://www.w3.org/2000/svg">
<path d="M1.032 38V29.684H6.108V30.68H2.196V33.152H5.676V34.124H2.196V37.004H6.408V38H1.032ZM23.5595 37.172C24.7755 37.172 25.3835 36.756 25.3835 35.924C25.3835 35.668 25.3275 35.452 25.2155 35.276C25.1115 35.092 24.9675 34.936 24.7835 34.808C24.5995 34.672 24.3875 34.556 24.1475 34.46C23.9155 34.364 23.6675 34.268 23.4035 34.172C23.0995 34.068 22.8115 33.952 22.5395 33.824C22.2675 33.688 22.0315 33.532 21.8315 33.356C21.6315 33.172 21.4715 32.956 21.3515 32.708C21.2395 32.46 21.1835 32.16 21.1835 31.808C21.1835 31.08 21.4315 30.512 21.9275 30.104C22.4235 29.696 23.1075 29.492 23.9795 29.492C24.4835 29.492 24.9395 29.548 25.3475 29.66C25.7635 29.764 26.0675 29.88 26.2595 30.008L25.8875 30.956C25.7195 30.852 25.4675 30.752 25.1315 30.656C24.8035 30.552 24.4195 30.5 23.9795 30.5C23.7555 30.5 23.5475 30.524 23.3555 30.572C23.1635 30.62 22.9955 30.692 22.8515 30.788C22.7075 30.884 22.5915 31.008 22.5035 31.16C22.4235 31.304 22.3835 31.476 22.3835 31.676C22.3835 31.9 22.4275 32.088 22.5155 32.24C22.6035 32.392 22.7275 32.528 22.8875 32.648C23.0475 32.76 23.2315 32.864 23.4395 32.96C23.6555 33.056 23.8915 33.152 24.1475 33.248C24.5075 33.392 24.8355 33.536 25.1315 33.68C25.4355 33.824 25.6955 33.996 25.9115 34.196C26.1355 34.396 26.3075 34.636 26.4275 34.916C26.5475 35.188 26.6075 35.52 26.6075 35.912C26.6075 36.64 26.3395 37.2 25.8035 37.592C25.2755 37.984 24.5275 38.18 23.5595 38.18C23.2315 38.18 22.9275 38.156 22.6475 38.108C22.3755 38.068 22.1315 38.02 21.9155 37.964C21.6995 37.9 21.5115 37.836 21.3515 37.772C21.1995 37.7 21.0795 37.64 20.9915 37.592L21.3395 36.632C21.5235 36.736 21.8035 36.852 22.1795 36.98C22.5555 37.108 23.0155 37.172 23.5595 37.172ZM47.3102 29.684V30.692H44.6942V38H43.5302V30.692H40.9142V29.684H47.3102ZM67.0619 38C66.9259 37.64 66.7979 37.288 66.6779 36.944C66.5579 36.592 66.4339 36.236 66.3059 35.876H62.5379L61.7819 38H60.5699C60.8899 37.12 61.1899 36.308 61.4699 35.564C61.7499 34.812 62.0219 34.1 62.2859 33.428C62.5579 32.756 62.8259 32.116 63.0899 31.508C63.3539 30.892 63.6299 30.284 63.9179 29.684H64.9859C65.2739 30.284 65.5499 30.892 65.8139 31.508C66.0779 32.116 66.3419 32.756 66.6059 33.428C66.8779 34.1 67.1539 34.812 67.4339 35.564C67.7139 36.308 68.0139 37.12 68.3339 38H67.0619ZM65.9699 34.916C65.7139 34.22 65.4579 33.548 65.2019 32.9C64.9539 32.244 64.6939 31.616 64.4219 31.016C64.1419 31.616 63.8739 32.244 63.6179 32.9C63.3699 33.548 63.1219 34.22 62.8739 34.916H65.9699ZM87.9855 29.684V30.692H85.3695V38H84.2055V30.692H81.5895V29.684H87.9855ZM102.955 38V29.684H108.031V30.68H104.119V33.152H107.599V34.124H104.119V37.004H108.331V38H102.955Z" fill="white"/>
<path d="M5.66 6.98C7.74 6.98 9.33333 7.35333 10.44 8.1C11.5467 8.83333 12.1 9.98 12.1 11.54C12.1 12.5133 11.8733 13.3067 11.42 13.92C10.98 14.52 10.34 14.9933 9.5 15.34C9.78 15.6867 10.0733 16.0867 10.38 16.54C10.6867 16.98 10.9867 17.4467 11.28 17.94C11.5867 18.42 11.88 18.9267 12.16 19.46C12.44 19.98 12.7 20.4933 12.94 21H9.44C9.18667 20.5467 8.92667 20.0867 8.66 19.62C8.40667 19.1533 8.14 18.7 7.86 18.26C7.59333 17.82 7.32667 17.4067 7.06 17.02C6.79333 16.62 6.52667 16.26 6.26 15.94H4.72V21H1.6V7.34C2.28 7.20667 2.98 7.11333 3.7 7.06C4.43333 7.00667 5.08667 6.98 5.66 6.98ZM5.84 9.64C5.61333 9.64 5.40667 9.64667 5.22 9.66C5.04667 9.67333 4.88 9.68667 4.72 9.7V13.46H5.6C6.77333 13.46 7.61333 13.3133 8.12 13.02C8.62667 12.7267 8.88 12.2267 8.88 11.52C8.88 10.84 8.62 10.36 8.1 10.08C7.59333 9.78667 6.84 9.64 5.84 9.64ZM14.9398 21V7.14H24.2998V9.76H18.0598V12.48H23.5998V15.04H18.0598V18.38H24.7598V21H14.9398ZM36.3488 21C36.2021 20.52 36.0354 20.0267 35.8488 19.52C35.6754 19.0133 35.5021 18.5067 35.3288 18H29.9288C29.7554 18.5067 29.5754 19.0133 29.3888 19.52C29.2154 20.0267 29.0554 20.52 28.9088 21H25.6688C26.1888 19.5067 26.6821 18.1267 27.1488 16.86C27.6154 15.5933 28.0688 14.4 28.5088 13.28C28.9621 12.16 29.4021 11.1 29.8288 10.1C30.2688 9.08667 30.7221 8.1 31.1888 7.14H34.1688C34.6221 8.1 35.0688 9.08667 35.5088 10.1C35.9488 11.1 36.3888 12.16 36.8288 13.28C37.2821 14.4 37.7421 15.5933 38.2088 16.86C38.6754 18.1267 39.1688 19.5067 39.6888 21H36.3488ZM32.6088 10.28C32.5421 10.48 32.4421 10.7533 32.3088 11.1C32.1754 11.4467 32.0221 11.8467 31.8488 12.3C31.6754 12.7533 31.4821 13.2533 31.2688 13.8C31.0688 14.3467 30.8621 14.92 30.6488 15.52H34.5888C34.3754 14.92 34.1688 14.3467 33.9688 13.8C33.7688 13.2533 33.5754 12.7533 33.3888 12.3C33.2154 11.8467 33.0621 11.4467 32.9288 11.1C32.7954 10.7533 32.6888 10.48 32.6088 10.28ZM50.7428 18.32V21H41.4828V7.14H44.6028V18.32H50.7428Z" fill="white"/>
</svg>
